<?xml version="1.0" encoding="UTF-8"?>
<!DOCTYPE svg PUBLIC "-//W3C//DTD SVG 1.1//EN" "http://www.w3.org/Graphics/SVG/1.1/DTD/svg11.dtd">
<!-- Creator: CorelDRAW 2021 (64-Bit) -->
<svg xmlns="http://www.w3.org/2000/svg" xml:space="preserve" width="389.977mm" height="210.362mm" version="1.1" style="shape-rendering:geometricPrecision; text-rendering:geometricPrecision; image-rendering:optimizeQuality; fill-rule:evenodd; clip-rule:evenodd"
viewBox="0 0 38997.66 21036.22"
 xmlns:xlink="http://www.w3.org/1999/xlink"
 xmlns:xodm="http://www.corel.com/coreldraw/odm/2003">
 <defs>
  <style type="text/css">
   <![CDATA[
    .fil0 {fill:#AE53F6}
    .fil1 {fill:#FEFEFE}
    .fil2 {fill:white}
   ]]>
  </style>
 </defs>
 <g id="Layer_x0020_1">
  <metadata id="CorelCorpID_0Corel-Layer"/>
  <g id="_2208566977552">
   <path class="fil0" d="M28378.95 90.76c-2768.34,503.16 -3455.24,2424.83 -4697.79,4571.34 -1157.55,1999.7 -2278.35,3976.81 -3425.52,5945.09 -1052.12,1805.16 -2939.94,4106.5 -2110.52,6848.02 633.84,2095.02 2828.49,4011 5716.77,3496.41 2698.79,-480.81 3523.57,-2565.85 4665.33,-4530.94 1166.03,-2006.9 2284.74,-3920.03 3435.5,-5934.65 1058.98,-1853.8 3012.23,-4234.74 2143.33,-6982.29 -662.35,-2094.44 -2831.39,-3939.25 -5727.1,-3412.98z"/>
   <path class="fil0" d="M33598.24 12387.15c-5630.55,1503.15 -3272.43,9870.87 2208.23,8383.04 5478.91,-1487.36 3351.15,-9867.26 -2208.23,-8383.04z"/>
   <path class="fil1" d="M9498.28 6360.61c0,0 0,0 0,0z"/>
   <path class="fil2" d="M15304.82 90.76c-2768.34,503.16 -3455.24,2424.83 -4697.79,4571.34 -1157.55,1999.7 -2278.36,3976.81 -3425.52,5945.09 -1052.12,1805.16 -2939.95,4106.5 -2110.52,6848.02 633.84,2095.02 2828.48,4011 5716.76,3496.41 2698.79,-480.81 3523.58,-2565.85 4665.34,-4530.94 1166.03,-2006.9 2284.74,-3920.03 3435.5,-5934.65 1058.98,-1853.8 3012.23,-4234.74 2143.32,-6982.29 -662.34,-2094.44 -2831.38,-3939.25 -5727.09,-3412.98z"/>
   <path class="fil2" d="M316.07 7619.19c-905.72,2454.5 310.23,3562.4 1443.69,5197.34 1055.94,1523.11 2111.15,3009.22 3146.82,4514.92 949.81,1380.94 1902.26,3598.43 4492.64,3666.04 1979.52,51.67 4553.6,-1251.48 5506.87,-3809.44 890.76,-2390.14 -390.97,-3658.69 -1426.64,-5158.99 -1057.7,-1532.2 -2062.6,-2998.8 -3133.71,-4520.37 -985.58,-1400.18 -1970.91,-3694.47 -4584.79,-3730.75 -1992.54,-27.67 -4497.44,1273.82 -5444.88,3841.25z"/>
  </g>
 </g>
</svg>
